Coordinates
version=1
nRows=43
nColumns=12
inDegrees=yes

Units are S.I. units (second, meters, Newtons, ...)
Angles are in degrees

endheader
time	SC_y	SC_z	SC_x	AC_y	AC_z	AC_x	GH_y	GH_z	GH_yy	EL_x	PS_y
       0.0              -56.86          30.87          17.01          45.06         -15.64         -10.53          88.42          44.05          99.61          109.8          96.97
   0.04136              -56.86          30.87          17.02          45.07         -15.64         -10.53          88.39          44.04          99.57          109.8          96.98
   0.08271              -56.86          30.87          17.03          45.07         -15.64         -10.53          88.37          44.04          99.53          109.8          96.99
    0.1241              -56.86          30.87          17.04          45.07         -15.64         -10.53          88.34          44.03          99.49          109.8           97.0
    0.1654              -56.86          30.86          17.04          45.08         -15.63         -10.53          88.31          44.03          99.44          109.8          97.01
    0.2068              -56.86          30.86          17.05          45.08         -15.63         -10.52          88.28          44.02          99.39          109.8          97.02
    0.2481              -56.86          30.86          17.06          45.08         -15.63         -10.52          88.25          44.01          99.34          109.8          97.03
    0.2895              -56.86          30.86          17.07          45.08         -15.63         -10.52          88.22          44.01          99.28          109.8          97.04
    0.3308              -56.86          30.85          17.08          45.09         -15.63         -10.52          88.18           44.0          99.22          109.7          97.05
    0.3722              -56.86          30.85          17.09          45.09         -15.62         -10.52          88.14          43.99          99.15          109.7          97.06
    0.4136              -56.86          30.85           17.1           45.1         -15.62         -10.52           88.1          43.98          99.08          109.7          97.08
    0.4549              -56.86          30.84          17.12           45.1         -15.62         -10.52          88.06          43.97           99.0          109.7          97.09
    0.4963              -56.86          30.84          17.13          45.11         -15.62         -10.52          88.01          43.96          98.92          109.7          97.11
    0.5376              -56.86          30.84          17.15          45.11         -15.61         -10.52          87.96          43.95          98.83          109.7          97.13
     0.579              -56.86          30.83          17.16          45.12         -15.61         -10.52           87.9          43.94          98.74          109.6          97.14
    0.6203              -56.86          30.83          17.18          45.12         -15.61         -10.51          87.84          43.93          98.63          109.6          97.16
    0.6617              -56.86          30.82           17.2          45.13          -15.6         -10.51          87.77          43.91          98.52          109.6          97.19
     0.703              -56.86          30.82          17.22          45.14          -15.6         -10.51           87.7           43.9           98.4          109.6          97.21
    0.7444              -56.86          30.81          17.24          45.15         -15.59         -10.51          87.62          43.88          98.26          109.5          97.24
    0.7857              -56.86          30.81          17.27          45.15         -15.59         -10.51          87.53          43.86          98.12          109.5          97.27
    0.8271              -56.86           30.8           17.3          45.16         -15.58          -10.5          87.43          43.84          97.96          109.5           97.3
    0.8685              -56.85          30.79          17.33          45.17         -15.58          -10.5          87.33          43.82          97.78          109.4          97.33
    0.9098              -56.85          30.78          17.36          45.19         -15.57          -10.5          87.21           43.8          97.58          109.4          97.37
    0.9512              -56.85          30.77           17.4           45.2         -15.56         -10.49          87.08          43.77          97.36          109.4          97.41
    0.9925              -56.85          30.76          17.44          45.21         -15.55         -10.49          86.94          43.74          97.12          109.3          97.46
     1.034              -56.85          30.75          17.48          45.23         -15.55         -10.49          86.78          43.71          96.85          109.3          97.51
     1.075              -56.85          30.74          17.53          45.25         -15.54         -10.48           86.6          43.67          96.55          109.2          97.57
     1.117              -56.85          30.72          17.59          45.27         -15.52         -10.48           86.4          43.63          96.21          109.1          97.64
     1.158              -56.85           30.7          17.66          45.29         -15.51         -10.47          86.17          43.58          95.83          109.0          97.72
     1.199              -56.84          30.68          17.73          45.32          -15.5         -10.47          85.91          43.53          95.39          109.0           97.8
     1.241              -56.84          30.66          17.82          45.35         -15.48         -10.46          85.61          43.47          94.89          108.9           97.9
     1.282              -56.84          30.64          17.91          45.38         -15.46         -10.45          85.27           43.4          94.32          108.7          98.01
     1.323              -56.84          30.61          18.03          45.42         -15.44         -10.44          84.88          43.32          93.66          108.6          98.14
     1.365              -56.83          30.57          18.16          45.46         -15.41         -10.43          84.43          43.22          92.89          108.4          98.29
     1.406              -56.83          30.53          18.31          45.52         -15.38         -10.42          83.89          43.11           92.0          108.3          98.47
     1.447              -56.83          30.49          18.49          45.58         -15.34          -10.4          83.26          42.98          90.94          108.0          98.67
     1.489              -56.82          30.43           18.7          45.66          -15.3         -10.38          82.52          42.83          89.68          107.8          98.92
      1.53              -56.81          30.36          18.96          45.75         -15.25         -10.36          81.62          42.65          88.18          107.5          99.21
     1.571              -56.81          30.28          19.27          45.85         -15.19         -10.33          80.54          42.42          86.36          107.1          99.57
     1.613               -56.8          30.18          19.65          45.99         -15.11          -10.3          79.22          42.15          84.13          106.6          100.0
     1.654              -56.78          30.06          20.11          46.15         -15.02         -10.26          77.58          41.81          81.38          106.1          100.5
     1.696              -56.77          29.91          20.69          46.35          -14.9         -10.21          75.55          41.39          77.96          105.4          101.2
     1.737              -56.75          29.72          21.43          46.61         -14.75         -10.14          72.98          40.87          73.64          104.5          102.1
